<?xml version="1.0" encoding="utf-8"?>
<!-- Generator: Adobe Illustrator 25.0.1, SVG Export Plug-In . SVG Version: 6.00 Build 0)  -->
<svg version="1.0" id="katman_1" xmlns:serif="http://www.serif.com/"
	 xmlns="http://www.w3.org/2000/svg" xmlns:xlink="http://www.w3.org/1999/xlink" x="0px" y="0px" viewBox="0 0 1040 759.3"
	 style="enable-background:new 0 0 1040 759.3;" xml:space="preserve">
<style type="text/css">
	.st0{fill:url(#SVGID_1_);}
	.st1{fill:url(#SVGID_2_);}
	.st2{fill:url(#SVGID_3_);}
	.st3{fill:#44004E;}
</style>
<g transform="matrix(1,0,0,1,0.000298111,-0.308164)">
	
		<linearGradient id="SVGID_1_" gradientUnits="userSpaceOnUse" x1="119.9997" y1="679.982" x2="120.9998" y2="679.982" gradientTransform="matrix(-209.1494 -322.0633 322.0633 -209.1494 -193286.125 181516.875)">
		<stop  offset="0" style="stop-color:#44004E"/>
		<stop  offset="0.1" style="stop-color:#4C0056"/>
		<stop  offset="0.3" style="stop-color:#83008A"/>
		<stop  offset="0.5" style="stop-color:#EA00EB"/>
		<stop  offset="0.6" style="stop-color:#FF00FF"/>
		<stop  offset="1" style="stop-color:#FF00FF"/>
	</linearGradient>
	<path class="st0" d="M611.4,652.7l-179.3-2.9V371.6l87.5-117.2l91.8,117.2V652.7z"/>
	
		<linearGradient id="SVGID_2_" gradientUnits="userSpaceOnUse" x1="119.9997" y1="679.9819" x2="120.9997" y2="679.9819" gradientTransform="matrix(-167.2405 342.9038 -342.9038 -167.2405 253991.1406 72649.8984)">
		<stop  offset="0" style="stop-color:#44004E"/>
		<stop  offset="0.1" style="stop-color:#4C0056"/>
		<stop  offset="0.3" style="stop-color:#83008A"/>
		<stop  offset="0.5" style="stop-color:#EA00EB"/>
		<stop  offset="0.6" style="stop-color:#FF00FF"/>
		<stop  offset="1" style="stop-color:#FF00FF"/>
	</linearGradient>
	<path class="st1" d="M604.8,375.3l-145.2-16.6l55.6-138.1l1.7-1L758.6,80l87.1,156.2L604.8,375.3z"/>
	
		<linearGradient id="SVGID_3_" gradientUnits="userSpaceOnUse" x1="119.9997" y1="679.9819" x2="120.9998" y2="679.9819" gradientTransform="matrix(382.0709 -23.3696 23.3696 382.0709 -61550.0859 -256753.0312)">
		<stop  offset="0" style="stop-color:#44004E"/>
		<stop  offset="0.1" style="stop-color:#4C0056"/>
		<stop  offset="0.3" style="stop-color:#83008A"/>
		<stop  offset="0.5" style="stop-color:#EA00EB"/>
		<stop  offset="0.6" style="stop-color:#FF00FF"/>
		<stop  offset="1" style="stop-color:#FF00FF"/>
	</linearGradient>
	<path class="st2" d="M432.3,379.5L188.9,239l92.2-151.1l241.7,140.9l57,129.8L432.3,379.5z"/>
	<path class="st3" d="M519.6,677.6c-33.2,0-58.6-5.2-74.1-9.6c-10.5-3-17.8-12.8-17.8-23.7l-0.1-270.6
		c-0.5-39.6-16.7-73.2-46.9-97.4c-41.5-33-106.3-45.1-168.8-31.4c-9,2-17.9-1-23.9-7.9c-6-6.9-7.7-16.2-4.5-24.8
		c7.1-19.1,16.3-41.8,29.7-65.1c16.6-28.8,33.9-48.1,45.4-59.2c7.8-7.6,20-9,29.5-3.6l228.4,131.8l0.1-0.2l6.1,3.6v0.1
		c34.9,19.4,71.9,22,107.8,7.9c49.4-19.4,92.1-69.4,111.6-130.4c2.8-8.7,9.8-15,18.8-16.8c9-1.7,17.8,1.4,23.7,8.5
		c13,15.7,28.1,35,41.5,58.3c16.6,28.8,24.8,53.4,28.6,69c2.7,10.6-2.1,21.8-11.6,27.3L613.5,376.1l-6.2,3.6
		C573.9,400,553.4,431,547.9,469c-7.5,52.3,14.4,113.9,57.3,161c6.2,6.8,8.1,16,5.1,24.7c-3,8.7-10.2,14.7-19.2,16.3
		C570.7,674.1,546.4,677.6,519.6,677.6z"/>
</g>
</svg>
